<?xml version="1.0" standalone="no"?>
<!DOCTYPE svg PUBLIC "-//W3C//DTD SVG 20010904//EN"
 "http://www.w3.org/TR/2001/REC-SVG-20010904/DTD/svg10.dtd">
<svg version="1.0" xmlns="http://www.w3.org/2000/svg"
 width="182.000000pt" height="182.000000pt" viewBox="0 0 182.000000 182.000000"
 preserveAspectRatio="xMidYMid meet">
<metadata>
Created by potrace 1.14, written by Peter Selinger 2001-2017
</metadata>
<g transform="translate(0.000000,182.000000) scale(0.100000,-0.100000)"
fill="#000000" stroke="none">
<path d="M800 1663 c-273 -46 -503 -229 -607 -484 -17 -41 -33 -90 -37 -109
-3 -19 -8 -46 -11 -60 -3 -14 -6 -68 -6 -121 -2 -317 184 -597 480 -720 207
-86 433 -79 636 22 161 79 288 205 364 361 135 278 81 638 -131 869 -89 95
-247 190 -378 225 -62 16 -252 27 -310 17z m46 -32 c-26 -29 -159 -92 -197
-94 -30 -2 -34 1 -34 23 0 18 9 29 30 39 33 16 147 45 191 49 26 2 26 1 10
-17z m-290 -97 c-9 -36 17 -74 50 -74 14 0 87 16 162 36 122 33 151 37 262 37
108 1 133 -2 185 -22 106 -42 180 -117 152 -155 -14 -20 -71 -26 -130 -16
-149 28 -477 34 -537 11 -112 -43 -149 -72 -169 -130 -26 -80 -10 -124 98
-259 143 -179 227 -357 207 -438 -6 -22 -49 -52 -71 -49 -119 14 -205 129
-346 465 -77 183 -101 216 -141 201 -53 -20 -108 -125 -108 -205 0 -14 -4 -26
-9 -26 -4 0 -7 13 -5 30 8 69 25 164 32 174 3 6 7 16 8 21 7 38 52 111 107
172 36 39 77 93 92 120 19 35 43 59 92 91 37 23 68 42 71 42 2 0 1 -12 -2 -26z
m784 -16 c0 -4 6 -8 13 -8 17 0 118 -96 162 -155 20 -25 47 -82 64 -132 16
-49 42 -115 59 -148 25 -47 32 -76 36 -138 l5 -78 -30 22 c-53 38 -85 13 -118
-92 -6 -19 -11 -43 -11 -52 0 -34 -61 -201 -96 -265 -83 -148 -242 -261 -313
-222 -37 19 -24 53 62 171 163 223 222 325 250 432 28 108 -1 205 -74 243 -38
19 -111 25 -171 13 -126 -24 -335 -32 -421 -16 -165 31 -179 140 -27 202 65
27 274 29 450 5 126 -18 200 -24 243 -21 10 0 22 13 28 28 20 53 -29 134 -131
216 -31 25 -32 26 -7 16 15 -7 27 -16 27 -21z m-1016 -499 c14 -17 27 -35 27
-40 3 -19 5 -26 32 -84 16 -33 38 -82 50 -110 111 -260 241 -401 364 -396 92
3 130 43 192 199 105 263 219 418 302 410 37 -3 68 -39 73 -82 11 -103 -55
-234 -248 -490 -53 -71 -103 -141 -111 -157 -14 -26 -13 -30 9 -55 21 -25 30
-28 89 -27 61 0 97 8 154 36 13 6 25 8 28 5 8 -7 -90 -53 -156 -73 -96 -28
-226 -27 -309 3 -8 3 -47 6 -86 7 -60 1 -83 7 -150 39 l-79 38 33 13 c42 18
55 51 34 87 -9 15 -52 62 -96 105 -128 125 -195 220 -231 328 -31 94 -26 215
13 258 22 24 37 21 66 -14z m1335 -213 c18 -22 -15 -172 -51 -231 l-18 -30 -1
65 c-2 111 1 147 15 188 8 25 38 29 55 8z m-1254 -400 c56 -35 78 -55 94 -85
9 -16 8 -22 -8 -31 -11 -5 -24 -10 -29 -10 -19 0 -172 160 -172 180 0 10 48
-12 115 -54z"/>
</g>
</svg>
